<?xml version="1.0" encoding="UTF-8"?>
<svg version="1.1" viewBox="0 0 2048 2034" width="750" height="745" xmlns="http://www.w3.org/2000/svg">
<path transform="translate(0)" d="m0 0h2048v2034h-2048z" fill="#39363C"/>
<path transform="translate(1126,494)" d="m0 0h5l3 5-1 5-11 10-15 11 7 3 36 12 20 9 15 8 16 8 8 5 5-1 14-11 11-9 10-8 19-14 4-1 5 4 1 4-9 9-17 13-16 13-10 8v4l12 10 9 7 15 14 8 7 12 13 9 11 12 15 13 19 13 23 12 25 6 16h3l13-12 8-7 7-6h5l4 5-1 5-8 8-8 7-11 10-6 5 1 7 5 17 4 24 4 27v11l17-13 9-6 5 1 1 3h2l-1 5-5 5-16 13-7 5-2 45-3 25-8 35-1 2 8-6 10-9 11-9 3-2h5l3 3v6l-11 11-10 8-12 11-11 9-5 6-7 16-11 23-11 19-16 24-11 14-12 14-14 15-8 7-12 11-13 10-17 12-19 12-23 12-20 9-21 8-25 7-28 6-15 2-28 2h-31l-31-3-11-2 3-4-2 2-10-1-25-6-5-1-15 13-12 11-7 5-5-1-3-3v-5l9-9 8-7 9-8-8-4-20-8-24-11-16-9-24-16-11-8-4 2-14 12-13 12-8 7-13 12-11 9-6 4-4-1-3-3 1-5 10-10 8-7 20-18 15-13 9-8 1-3-16-15-16-16-9-11-12-15-17-25-1-3-7 4-14 13-11 9-5 2-6-5 1-5 12-11 11-9 10-9-1-5-13-27-7-19h-3l-15 12-5 1-5-5 1-5 7-7 10-8 4-3-1-7-5-16-5-26-3-33-1-23v-15l3-32 5-27 6-23 5-16 11-25 8-18 3-6-8 6-9 7h-6l-3-4 1-5 7-7 10-8 10-9 11-9 10-9 11-14 11-13 18-20 20-18 17-13 11-8 19-12 18-10 19-9 15-6 27-9 28-7 26-4 20-2 48-1 29 4 11 2h6l6-4 14-12z" fill="#39363C"/>
<path transform="translate(1126,494)" d="m0 0h5l3 5-1 5-11 10-15 11 7 3 36 12 20 9 15 8 16 8 8 5 5-1 14-11 11-9 10-8 19-14 4-1 5 4 1 4-9 9-17 13-16 13-10 8v4l12 10 9 7 15 14 8 7 12 13 9 11 12 15 13 19 13 23 12 25 6 16h3l13-12 8-7 7-6h5l4 5-1 5-8 8-8 7-11 10-6 5 1 7 5 17 4 24 4 27v11l17-13 9-6 5 1 1 3h2l-1 5-5 5-16 13-7 5-2 45-3 25-8 35-1 2 8-6 10-9 11-9 3-2h5l3 3v6l-11 11-10 8-12 11-11 9-5 6-7 16-11 23-11 19-16 24-11 14-12 14-14 15-8 7-12 11-13 10-17 12-19 12-23 12-20 9-21 8-25 7-28 6-15 2-28 2h-31l-31-3-11-2 3-4-2 2-10-1-25-6-5-1-15 13-12 11-7 5-5-1-3-3v-5l9-9 8-7 9-8-8-4-20-8-24-11-16-9-24-16-11-8-4 2-14 12-13 12-8 7-13 12-11 9-6 4-4-1-3-3 1-5 10-10 8-7 20-18 15-13 9-8 1-3-16-15-16-16-9-11-12-15-17-25-1-3-7 4-14 13-11 9-5 2-6-5 1-5 12-11 11-9 10-9-1-5-13-27-7-19h-3l-15 12-5 1-5-5 1-5 7-7 10-8 4-3-1-7-5-16-5-26-1-8v-10l11-7 33-22 5-2 4 39 4 22 7 27 7 20 12 26 10 18 12 19 11 14 11 13 12 13 10 9 15 13 14 10 29 17 22 11 29 11 14 4 29 6 28 4h36l24-2 28-5 26-8 22-8 20-9 23-13 19-13 14-11 15-13 13-13 7-8 13-16 14-21 11-19 8-16 7-16 7-19 6-23 6-38v-51l-5-37-6-23-9-27-8-18-8-17-4-8-14-21-10-13-9-11-15-16-10-9-11-9-10-8-17-12-19-11-26-13v-2l-6-1-33-11-28-6-21-3v-3l-2 2-47 1-21 2-28 5-24 7-27 10-19 9-21 12-16 11-13 10-13 11-25 25-11 14-13 18-13 22-12 25-8 21-7 23-6 25-12 10-26 20-10 8-7 5h-1v-13l3-32 5-27 6-23 5-16 11-25 8-18 3-6-8 6-9 7h-6l-3-4 1-5 7-7 10-8 10-9 11-9 10-9 11-14 11-13 18-20 20-18 17-13 11-8 19-12 18-10 19-9 15-6 27-9 28-7 26-4 20-2 48-1 29 4 11 2h6l6-4 14-12z" fill="#F55FAA"/>
<path transform="translate(1154,670)" d="m0 0h16l10 3 9 7 6 7 5 11 1 5v11l-4 13-6 8-9 8-12 4h-16l-9-3-5 1-17 17 6 9 4 8 3 9 1 6v9l-3 13-4 9 1 4 14 12 9 7 4-1 8-5 7-2h15l13 4 9 7 6 9 4 10 1 11-3 12-5 9-8 8-6 4-10 3h-15l-10-3-11-8-6-9-4-10-1-11 2-10 2-6-14-11-11-10-4 1-16 8-7 2h-20l-11-4-10-6-7-6-5 2-18 10 2 10 2 14v20l-3 17-5 13-1 6 20 12 5-2 5-3 4-1h12l8 3 8 8 3 6 1 5v7l-3 10-5 6-8 5-4 1h-13l-9-4-5-5-4-7-1-4v-12l-19-11-5-1-9 10-11 10-16 10-14 5-19 4h-8v6l3 3 6 4 7 8 3 8v8l-4 10-6 7-10 5-8 1-10-3-8-6-5-8-2-8 1-9 4-8 9-8 6-2v-8l-11-2-18-6-15-8-11-9-9-9-9-13-7-14-5-16-2-11v-24l4-16 5-13 9-15 9-11 11-10 14-9 14-6 19-5h2v-15l-6-2-7-6-5-8-1-3v-14l6-10 6-5 7-3h14l8 4 8 9 3 8v9l-6 12-8 7-4 2-1 5v8l1 1 18 3 15 4 17 9 13 10 9 9 12 17 6-2 14-8 1-2-3-8-1-6v-17l3-10 6-11 13-13 11-5 11-3h17l18 6 18-18 1-2-7-14-1-7v-8l3-12 7-10 8-7 9-4z" fill="#FEFEFF"/>
<path transform="translate(1366,855)" d="m0 0h5v26l-1 19-3 25-8 35-1 2 8-6 10-9 11-9 3-2h5l3 3v6l-11 11-10 8-12 11-11 9-5 6-7 16-11 23-11 19-16 24-11 14-12 14-14 15-8 7-12 11-13 10-17 12-19 12-23 12-20 9-21 8-25 7-28 6-15 2-28 2h-31l-31-3-11-2 3-4-2 2-10-1-25-6-5-1-15 13-12 11-7 5-5-1-3-3v-5l9-9 8-7 9-8-8-4-20-8-24-11-16-9-24-16-11-8-4 2-14 12-13 12-8 7-13 12-11 9-6 4-4-1-3-3 1-5 10-10 8-7 20-18 15-13 9-8 1-3-16-15-16-16-9-11-12-15-17-25-1-3-7 4-14 13-11 9-5 2-6-5 1-5 12-11 11-9 10-9-1-5-13-27-7-19h-3l-15 12-5 1-5-5 1-5 7-7 10-8 4-3-1-7-5-16-5-26-1-8v-10l11-7 33-22 5-2 4 39 4 22 7 27 7 20 12 26 10 18 12 19 11 14 11 13 12 13 10 9 15 13 14 10 29 17 22 11 29 11 14 4 29 6 28 4h36l24-2 28-5 26-8 22-8 20-9 23-13 19-13 14-11 15-13 13-13 7-8 13-16 14-21 11-19 8-16 7-16 7-19 6-23 6-38v-5l1 2 11-9 7-7 11-9z" fill="#22A8BD"/>
<path transform="translate(723,868)" d="m0 0h2l4 39 4 22 7 27 7 20 12 26 10 18 12 19 11 14 11 13 12 13 10 9 15 13 14 10 29 17 22 11 29 11 14 4 29 6 35 5-5 5-11 9-15 14-8 7-7 6-10-1-25-6-5-1-15 13-12 11-7 5-5-1-3-3v-5l9-9 8-7 9-8-8-4-20-8-24-11-16-9-24-16-11-8-4 2-14 12-13 12-8 7-13 12-11 9-6 4-4-1-3-3 1-5 10-10 8-7 20-18 15-13 9-8 1-3-16-15-16-16-9-11-12-15-17-25-1-3-7 4-14 13-11 9-5 2-6-5 1-5 12-11 11-9 10-9-1-5-13-27-7-19h-3l-15 12-5 1-5-5 1-5 7-7 10-8 4-3-1-7-5-16-5-26-1-8v-10l11-7 33-22z" fill="#186CAC"/>
<path transform="translate(1104,525)" d="m0 0 29 9 22 8 27 13 19 10 8 5 5-1 14-11 11-9 10-8 19-14 4-1 5 4 1 4-9 9-17 13-16 13-10 8v4l12 10 9 7 15 14 8 7 12 13 9 11 12 15 13 19 13 23 12 25 6 16h3l13-12 8-7 7-6h5l4 5-1 5-8 8-8 7-11 10-6 5 1 7 5 17 4 24 4 27v11l17-13 9-6 5 1 1 3h2l-1 5-5 5-16 13-7 5-7 2-13 11-11 9-7 7-7 6h-2l-1-48-5-37-6-23-9-27-8-18-8-17-4-8-14-21-10-13-9-11-15-16-10-9-11-9-10-8-17-12-19-11-26-13v-2l-6-1-33-11-28-6-21-3 2-5 14-12 13-10 16-12z" fill="#186BAB"/>
<path transform="translate(1320,688)" d="m0 0 3 1 12 23 9 21 4 9 11-9 14-13 5-4h5l4 5-1 5-8 8-8 7-11 10-6 5 1 7 5 17 4 24 4 27v11l17-13 9-6 5 1 1 3h2l-1 5-5 5-16 13-7 5-7 2-13 11-11 9-7 7-7 6h-2l-1-48-5-37-6-23-9-27-8-18-8-17 1-5 8-7 12-11z" fill="#F45FAA"/>
<path transform="translate(852,1111)" d="m0 0 6 2 13 8 16 9 23 11 30 11 31 7 41 6-5 5-11 9-15 14-8 7-7 6-10-1-25-6-5-1-15 13-12 11-7 5-5-1-3-3v-5l9-9 8-7 9-8-8-4-20-8-24-11-16-9-24-16-2-4 8-8 8-7 17-14z" fill="#F55FAA"/>
<path transform="translate(297,1331)" d="m0 0h44l12 3 6 4 7 8 2 7-1 12-4 8-5 6 5 2 6 5 5 9 1 3v12l-4 10-7 8-9 5-12 2h-45l-1-1z" fill="#FEFEFF"/>
<path transform="translate(1223,580)" d="m0 0 4 2 15 12 8 7 12 11 8 7 12 13 9 11 12 15 13 19 6 11-13 10-8 8-8 7-4 3-2 3-3-7-14-21-10-13-9-11-15-16-10-9-11-9-10-8-17-12-2-2 8-7 14-10 11-9z" fill="#186CAC"/>
<path transform="translate(779,689)" d="m0 0h2l-1 4-10 15-10 18-10 21-8 21-7 23-6 25-12 10-26 20-10 8-7 5h-1v-13l3-32 5-27 6-23 5-16 2-4 17-10 24-16 17-11 12-8 10-7z" fill="#FEC91F"/>
<path transform="translate(1347,988)" d="m0 0h2l-3 9-9 20-12 23-14 22-10 14-9 11-11 13-14 15-8 7-12 11-13 10-17 12-19 12-23 12-20 9-21 8-25 7-28 6-15 2-28 2h-31l-31-3-11-2 4-5 5-5 16-15 11-9 9-8 2-1 29-1 24-2 28-5 3 1-8 7-14 12-11 9-14 12-11 10-1 2 30-4 34-7 36-10 12-5 17-7 19-9 19-11 19-13 13-10 11-9 12-11 13-12 7-8 8-9 11-14 11-16 12-20 8-15 11-23 6-8z" fill="#186BAB"/>
<path transform="translate(685,1331)" d="m0 0h48l12 3 10 7 6 10 1 11-3 10-8 9-9 5h-4l9 15 18 27 3 4v3h-14l-8-11-15-24-6-10-27-1v45l-1 1h-12l-1-1v-102z" fill="#FEFEFF"/>
<path transform="translate(1665,1331)" d="m0 0h48l12 3 9 6 6 8 2 8-1 11-4 8-7 7-8 4h-3l5 10 24 36v3h-13l-4-4-12-19-14-22-27-1v45l-1 1h-11l-1-1z" fill="#FEFEFF"/>
<path transform="translate(723,868)" d="m0 0h2l4 39 4 22 7 27v3l-9 7-14 11-12 9-5 3h-3l-4-9-13 10-6 4-5-1-3-4 1-5 7-7 10-8 4-3-1-7-5-16-5-26-1-8v-10l11-7 33-22z" fill="#F55FAA"/>
<path transform="translate(1081,760)" d="m0 0h9l10 3 11 7 7 9 5 12v15l-4 11-6 8-8 7-10 4h-20l-10-4-8-6-7-10-3-9v-17l5-12 7-8 5-4 8-4z" fill="#39373E"/>
<path transform="translate(1126,494)" d="m0 0h5l3 5-1 5-11 10-15 11-10 5-28 22-16 13-47 1-21 2-23 4h-6v-2l15-10 31-21 21-14 11-8 2-2h9l29 4 11 2h6l6-4 14-12z" fill="#FEC920"/>
<path transform="translate(738,959)" d="m0 0h3l7 19 11 24 10 18 3 5-1 4-14 11-14 12-8 5-4-2-7-10v-2l-7 4-14 13-11 9-5 2-6-5 1-5 12-11 11-9 10-9-1-5-13-27-4-11 10-5 12-10 13-10z" fill="#22A7BD"/>
<path transform="translate(586,1331)" d="m0 0h14l3 3 42 98v3h-11l-3-3-9-21-4-10-49-1-10 25-4 9-1 1h-11l-1-3 12-27 15-35 13-30z" fill="#FEFEFF"/>
<path transform="translate(847,1331)" d="m0 0h14l5 8 11 26 19 44 10 23v3l-13-1-7-15-7-17v-2h-50l-1 5-12 29-4 1-9-1 6-16 11-25 16-37 10-24z" fill="#FEFEFF"/>
<path transform="translate(928,794)" d="m0 0 8 2 7 7 8 14 6 19 3 16 1 21-20 1h-30l-15-1 1-18 6-29 9-20 8-9 3-2z" fill="#383840"/>
<path transform="translate(1287,1331)" d="m0 0h12l5 5 10 12 11 14 14 17 11 14 9 11 11 14v-87h12l1 1v101l-2 2h-11l-8-7-13-17-10-12-11-14-13-16-10-13-6-8-2-1 1 7 1 79-3 2h-10v-103z" fill="#FEFEFF"/>
<path transform="translate(911,886)" d="m0 0h44l6 1v9l-2 18-6 23-8 16-8 9-6 3-7-1-7-5-7-10-7-16-5-22-2-15v-9z" fill="#39383F"/>
<path transform="translate(1366,855)" d="m0 0h5v26l-1 19-3 25-8 35-1 2 2 1-4 3h-3l3-14 3-13 1-8-11 9-10 9-9 7-12 11-11 9h-2l1-6 6-16 6-23 6-38v-5l1 2 11-9 7-7 11-9z" fill="#186BAB"/>
<path transform="translate(1357,782)" d="m0 0 2 1 5 26 3 22v11l17-13 9-6 5 1 1 3h2l-1 5-5 5-16 13-7 5-7 2-13 11-11 9-7 7-7 6h-2l-1-48-2-17v-13l20-18 8-7z" fill="#FEC920"/>
<path transform="translate(945,1155)" d="m0 0h7l31 6 29 4-5 5-11 9-15 14-8 7-7 6-10-1-25-6-5-1-15 13-12 11-7 5-5-1-3-3v-5l9-9 8-7 9-8-3-2v-2l7-5h2l2-4 16-15 8-7z" fill="#FEC920"/>
<path transform="translate(418,1331)" d="m0 0h12l1 2 1 42 57 1 1-45h12l1 33v23l-1 47-1 1h-11v-49h-59v47l-3 2h-10l-1-4v-99z" fill="#FEFEFF"/>
<path transform="translate(1428,1331)" d="m0 0h12l1 56 9-9 7-8 11-11 7-8 14-14 4-5 2-1h14l-2 4-7 7-7 8-21 21-1 3 9 13 32 42 3 4v2h-14l-5-5-10-14-16-21-8-11v-2l-8 7-12 11-1 2-1 32-1 1h-11l-1-5v-98z" fill="#FEFEFF"/>
<path transform="translate(1271,526)" d="m0 0 5 3 2 5-9 9-17 13-16 13-10 8-7 9-12 10-17 12-3 3-6-2-17-10-19-9v-4l32-21 9-6 6 1 16 9 5 1 16-13 20-16 19-14z" fill="#F55FAA"/>
<path transform="translate(1223,580)" d="m0 0 4 2 15 12 8 7 12 11 8 7-1 4-11 9-15 12-6 5-5-1-13-12-14-11-17-12-2-2 8-7 14-10 11-9z" fill="#22A7BD"/>
<path transform="translate(1555,1331)" d="m0 0h66v10l-4 1-49-1 1 34 47 1-1 9-3 1h-43v38l54 1v10h-67l-1-1z" fill="#FEFEFF"/>
<path transform="translate(724,819)" d="m0 0h4l-2 23-1 26-11 7-36 24h-2l-1-3-2-35 1-3 27-21 13-10z" fill="#186BAA"/>
<path transform="translate(897,800)" d="m0 0h3l-2 6-5 12-4 11-4 23-2 20-1 1-21 1-17-1 1-13 5-14 6-12 10-13 10-9 14-9z" fill="#383A42"/>
<path transform="translate(958,800)" d="m0 0 9 3 10 6 11 9 7 7 9 14 5 11 4 17v6l-9 1h-13l-16-1-3-25-6-26-6-15z" fill="#383A42"/>
<path transform="translate(875,886)" d="m0 0 7 1 1 1 3 26 4 19 7 19 3 6-1 2-10-4-14-10-10-9-9-12-8-16-4-16v-6z" fill="#383941"/>
<path transform="translate(975,887)" d="m0 0h38v7l-5 19-8 14-8 10-8 8-13 9-11 5h-2l1-5 5-11 5-17 4-21z" fill="#383941"/>
<path transform="translate(1157,683)" d="m0 0h10l10 4 8 9 3 10-1 10-4 8-8 7-8 3h-9l-10-4-6-5-4-7-1-4v-11l4-10 8-7z" fill="#383941"/>
<path transform="translate(1179,853)" d="m0 0 10 1 8 4 7 8 3 10-1 11-4 7-8 7-10 3-10-1-8-4-8-9-2-6v-10l4-10 7-7 6-3z" fill="#383940"/>
<path transform="translate(933,1331)" d="m0 0h77v9l-1 1h-31v93l-2 1h-11l-1-4v-89l-31-1z" fill="#FEFEFF"/>
<path transform="translate(1123,1331)" d="m0 0h13l1 1v93h49v10h-62l-1-1z" fill="#FEFEFF"/>
<path transform="translate(310,1385)" d="m0 0h37l8 3 6 7 1 3v13l-3 6-6 5-5 2-6 1h-32z" fill="#383841"/>
<path transform="translate(1679,1341)" d="m0 0h29l11 2 6 4 4 7v11l-5 8-10 5-8 1h-27l-1-1v-36z" fill="#373A44"/>
<path transform="translate(698,1341)" d="m0 0h29l11 2 7 4 3 5 1 10-2 7-5 5-5 3-12 2h-26l-1-1z" fill="#383A41"/>
<path transform="translate(310,1341)" d="m0 0h31l7 2 5 5 2 5v9l-3 7-6 5-3 1h-33z" fill="#383840"/>
<path transform="translate(1229,1331)" d="m0 0h12l1 5v21l-1 77-1 1h-11l-1-1v-62z" fill="#FEFEFF"/>
<path transform="translate(853,1343)" d="m0 0h2l8 18 11 27v2h-39l1-6 16-38z" fill="#383942"/>
<path transform="translate(593,1343)" d="m0 0 3 3 15 37 2 7h-39l3-10 15-36z" fill="#383942"/>
<path transform="translate(919,999)" d="m0 0h9l5 3 3 6v7l-3 5-7 4-8-1-5-4-2-4v-8l4-6z" fill="#373C46"/>
<path transform="translate(919,728)" d="m0 0h9l5 3 3 6v7l-4 6-6 3h-6l-6-4-3-5v-7l3-5z" fill="#373A45"/>
<path transform="translate(1055,945)" d="m0 0h6l6 4 3 5v8l-3 5-5 3h-7l-6-3-3-5v-9l4-6z" fill="#383A43"/>
<path transform="translate(787,1543)" d="m0 0h7l6 3 2 3v9l-4 5-5 2-7-1-5-4-1-2v-8l5-6z" fill="#363F4A"/>
<path transform="translate(512,1543)" d="m0 0h8l5 3 2 3v9l-4 5-5 2-7-1-5-4-1-2v-8l5-6z" fill="#36404A"/>
<path transform="translate(1274,1543)" d="m0 0h8l5 3 2 4v7l-3 5-7 3-6-1-5-4-2-7 3-7z" fill="#363F4A"/>
<path transform="translate(1354,1543)" d="m0 0 9 1 5 4 1 9-5 6-7 2-6-2-5-6v-7l4-5z" fill="#363F4A"/>
<path transform="translate(1379,1543)" d="m0 0h7l5 2 2 5-3 5 2 4 1 4-5-1-4-6h-3v7h-4v-19z" fill="#FEFEFF"/>
<path transform="translate(1084,1543)" d="m0 0 10 1 2 2v7l-2 4 3 4v2l-5-1-3-5v-2h-5v8h-3v-18z" fill="#FEFEFF"/>
<path transform="translate(859,1543)" d="m0 0 3 3v17h-4l-1-13-4 6h-4l-3-5v-2h-2l1 13-4 1v-19h5l4 6 3 1 2-5z" fill="#FEFEFF"/>
<path transform="translate(1300,1543)" d="m0 0h7l6 3 1 4-3 5-4 2h-5v6h-4v-18z" fill="#FEFEFF"/>
<path transform="translate(813,1543)" d="m0 0 5 3 2 5 3-1 4-6 3-1 2 1v19h-4v-11l1-2-5 5-4 1-5-8v14l-4 1v-18z" fill="#FEFEFF"/>
<path transform="translate(1325,1543)" d="m0 0h7l5 3 1 7-4 3-7 2-1 5h-3l-1-14 1-5z" fill="#FEFEFF"/>
<path transform="translate(1453,1544)" d="m0 0 5 1 9 11 2 1-1-12 4-1 1 12v7l-3 1-6-5-6-8v-2h-2v14l-4-1v-10z" fill="#FEFEFF"/>
<path transform="translate(537,1543)" d="m0 0 5 3 8 10 2 1-1-12 4-1 1 5v13l-5 1-7-8-3-4v-2h-2v14h-3v-19z" fill="#FEFEFF"/>
<path transform="translate(899,1543)" d="m0 0 5 2 9 12 2 1-1-2v-12h4v19h-5l-10-13-1 12-4 1z" fill="#FEFEFF"/>
<path transform="translate(1195,1544)" d="m0 0 5 1 9 12 1 1v-14h4v19h-5l-10-13-1 1v11h-4v-17z" fill="#FEFEFF"/>
<path transform="translate(1354,1543)" d="m0 0 9 1 5 4 1 9-5 6-7 2-6-2-5-6v-7l4-5zm3 2-6 3-1 2v7l4 5h6l4-4 1-7-4-5z" fill="#FEFEFF"/>
<path transform="translate(787,1543)" d="m0 0h7l6 3 2 3v9l-4 5-5 2-7-1-5-4-1-2v-8l5-6zm3 2-6 4-1 7 5 6h6l4-4 1-6-4-6z" fill="#FEFEFF"/>
<path transform="translate(1274,1543)" d="m0 0h8l5 3 2 4v7l-3 5-7 3-6-1-5-4-2-7 3-7zm3 2-5 3-2 3 1 7 4 4 7-1 4-5-1-7-3-3z" fill="#FEFEFF"/>
<path transform="translate(512,1543)" d="m0 0h8l5 3 2 3v9l-4 5-5 2-7-1-5-4-1-2v-8l5-6zm2 2-5 4-1 6 3 6 2 1h6l5-6-1-7-3-3z" fill="#FEFEFF"/>
<path transform="translate(565,1544)" d="m0 0 5 1 10 12 1-13h3v19l-5-1-6-7-3-4v-2h-2v14h-3z" fill="#FEFEFF"/>
<path transform="translate(681,1544)" d="m0 0 5 1 7 9v2l3 1v-12l4-1v19l-5-1-7-8-5-5 1 5v9l-4-1z" fill="#FEFEFF"/>
<path transform="translate(717,1543)" d="m0 0h7l4 2v2h-11l-3 3v7l4 4h5l2-4-4-2 1-2 7 1v7l-3 3-8 1-6-3-3-5v-6l4-6z" fill="#FEFEFF"/>
<path transform="translate(871,1544)" d="m0 0h3l2 15 2 2 5-1 1-2 1-14 4 1v11l-2 5-3 3h-9l-4-5-1-4v-7z" fill="#FEFEFF"/>
<path transform="translate(1231,1543)" d="m0 0 9 1 1 3h-11l-3 4v6l4 4h6l1-5-4-1v-2l8 1v7l-3 3-8 1-5-3-3-3v-9l5-6z" fill="#FEFEFF"/>
<path transform="translate(1536,1543)" d="m0 0h9v3h-9v6l8-1v4l-8 1 1 5 9 1-1 2h-11l-2-2v-17z" fill="#FEFEFF"/>
<path transform="translate(1561,1543)" d="m0 0 7 1 1 3-9-1v5l7 1 4 4-1 6-6 3-7-1-1-4 9 1 1-5-9-3-1-5 2-4z" fill="#FEFEFF"/>
<path transform="translate(595,1543)" d="m0 0h11l1 3h-9v6h8v2l-8 1 1 6 8 1-1 2h-9l-3-2v-18z" fill="#FEFEFF"/>
<path transform="translate(1426,1544)" d="m0 0h3l1 13 2 4h5l2-4 1-13h3v15l-4 5h-9l-3-3-1-2-1-14z" fill="#FEFEFF"/>
<path transform="translate(981,1543)" d="m0 0h9l1 3-9 1v4l8 1v2l-2 1h-7l1 6 9 1-3 2-10-1-1-1v-14l1-4z" fill="#FEFEFF"/>
<path transform="translate(486,1543)" d="m0 0h7l3 2v2l-6-1-5 2-2 2v7l3 4h6l4-1-2 4-7 1-6-3-3-4v-8l4-5z" fill="#FEFEFF"/>
<path transform="translate(1007,1543)" d="m0 0 7 1v3l-9-1v5l7 1 4 3-1 7-2 2-6 1-5-2-1-2h11l-1-5-8-3-2-2 1-6z" fill="#FEFEFF"/>
<path transform="translate(1139,1543)" d="m0 0 5 5 5 13v2h-3l-5-10v-4l-3 3-5 11h-3l3-10 4-8z" fill="#FEFEFF"/>
<path transform="translate(761,1543)" d="m0 0h7l3 2v2l-7-1-5 3-1 1v7l3 4h7l3-1-2 4-7 1-6-3-3-6 1-7 5-5z" fill="#FEFEFF"/>
<path transform="translate(625,1543)" d="m0 0h6l3 3-3 1-4-1-5 2-2 4 1 6 3 3h6l4-1-2 4-7 1-6-3-3-4v-7l3-5z" fill="#FEFEFF"/>
<path transform="translate(1109,1543)" d="m0 0 12 1-1 2h-9v6l7-1 1 4h-8l1 6 9 1v1l-10 1-3-1-1-10 1-9z" fill="#FEFEFF"/>
<path transform="translate(1062,1543)" d="m0 0 9 1 1 3h-11l-3 4 1 7 3 3h6l4-1-2 4-6 1-7-3-3-4v-8l5-6z" fill="#FEFEFF"/>
<path transform="translate(1157,1543)" d="m0 0h14v3h-5v17l-4-1v-16h-5z" fill="#FEFEFF"/>
<path transform="translate(941,1544)" d="m0 0h14v2h-5v16l-4 1-1-16-4-1z" fill="#FEFEFF"/>
<path transform="translate(643,1543)" d="m0 0h14l1 3h-6v17h-3l-1-16-5-1z" fill="#FEFEFF"/>
<path transform="translate(1496,1543)" d="m0 0h13l1 3-5 1-1 16h-3l-1-16-5-1z" fill="#FEFEFF"/>
<path transform="translate(1401,1544)" d="m0 0h15v2l-5 1-1 16h-3l-1-16-5-2z" fill="#FEFEFF"/>
<path transform="translate(668,1544)" d="m0 0h3v19h-4v-18z" fill="#FEFEFF"/>
<path transform="translate(1182,1544)" d="m0 0 3 1v18h-4v-18z" fill="#FEFEFF"/>
<path transform="translate(928,1544)" d="m0 0 3 1v18h-4v-18z" fill="#FEFEFF"/>
<path transform="translate(1519,1544)" d="m0 0h3l1 6v13h-4z" fill="#FEFEFF"/>
<path transform="translate(965,1544)" d="m0 0h4l-1 19h-3z" fill="#FEFEFF"/>
<path transform="translate(1327,1546)" d="m0 0 7 1 1 4-2 3-5 1-2-3z" fill="#344654"/>
<path transform="translate(1302,1546)" d="m0 0h6l2 2-1 5-1 1h-6z" fill="#35404E"/>
<path transform="translate(1085,1546)" d="m0 0h6l2 4-2 3h-7v-6z" fill="#324C5C"/>
<path transform="translate(1483,1544)" d="m0 0h2l1 5v14h-3l-1-13z" fill="#FEFEFF"/>
<path transform="translate(1381,1546)" d="m0 0h6l2 2-1 4-1 1h-6z" fill="#31475A"/>
<path transform="translate(1139,1549)" d="m0 0h2l1 8-7 1z" fill="#688E9C"/>
</svg>
